<svg enable-background="new 0 0 100 100" height="512" viewBox="0 0 100 100" width="512" xmlns="http://www.w3.org/2000/svg"><path d="m95 24.0765533v-11.8003091c0-4.0185738-3.2576675-7.2762442-7.2762451-7.2762442h-75.4475107c-4.0185738 0-7.2762442 3.2576704-7.2762442 7.2762442v11.8003092h90z" fill="#32796b"/><path d="m5 87.7237549c0 4.0185776 3.2576704 7.2762451 7.2762442 7.2762451h75.4475098c4.0185785 0 7.276246-3.2576675 7.276246-7.2762451v-65.5905094h-90z" fill="#e6e7e8"/><circle cx="14.248" cy="14.538" fill="#f1622a" r="3.394"/><circle cx="25.784" cy="14.538" fill="#d6b24e" r="3.394"/><circle cx="37.321" cy="14.538" fill="#ffd25a" r="3.394"/><path d="m60.6274605 47.0379372 5.367733-1.8793335v-7.4178734c-4.7066689-2.7233086-10.1663513-4.2899361-15.9951515-4.2899361v10.7233734c3.875576 0 7.4979972 1.0528031 10.6274185 2.8637696z" fill="#d6b251"/><path d="m71.2713776 65.4451752 5.4715195 3.6748734 5.251442-3.6748734c0-5.828804-1.5664673-11.2884865-4.289772-15.9949074l-9.2972031 5.367569c1.8109664 3.1293373 2.8640136 6.7519226 2.8640136 10.6273384z" fill="#dc594e"/><path d="m68.4073639 76.0728378 9.2972031 5.367569c2.7233047-4.706749 4.289772-10.1664352 4.289772-15.9952316h-10.7229614c0 3.87574-1.0531311 7.4983215-2.8640137 10.6276626z" fill="#cd5148"/><path d="m39.3725395 47.0379372v-6.0097389l-5.3677292-3.287468c-4.8548031 2.8092194-8.9002399 6.8544922-11.7093773 11.7095375l9.297287 5.367569c1.8674774-3.2270089 4.5528107-5.912426 7.7798195-7.7798996z" fill="#509fd7"/><path d="m28.7287064 65.4451752-5.8777351-2.3458824-4.8453121 2.3458824c0 5.8287964 1.5664654 11.2884827 4.2897739 15.9952316l9.2972069-5.367569c-1.8108846-3.1296615-2.8639336-6.7519226-2.8639336-10.6276626z" fill="#fdd96f"/><path d="m31.59272 54.8178368-9.297287-5.367569c-2.7233086 4.7064209-4.2897739 10.1661034-4.2897739 15.9949074h10.7230473c0-3.8754158 1.0531311-7.4980011 2.8640136-10.6273384z" fill="#ffd25a"/><path d="m50.000042 44.1741676v-10.7233734c-5.8288841 0-11.2885666 1.5666275-15.9952316 4.2899361l5.3677292 9.2972069c3.1294212-1.8106423 6.7518424-2.8637696 10.6275024-2.8637696z" fill="#4388b9"/><path d="m68.4073639 54.8178368 9.2972031-5.367569c-2.8091354-4.8550453-6.8545761-8.9003181-11.7093735-11.7095375l-5.367733 9.2972069c3.2270088 1.8674736 5.9125023 4.5528907 7.7799034 7.7798996z" fill="#ba9a43"/><path d="m49.0480118 63.5898819c-1.777668.690094-2.6593246 2.6906128-1.9692307 4.4682846.690094 1.7776642 2.6906128 2.6593246 4.4682808 1.9692307 1.7776718-.690094 22.8640327-12.5796738 22.8640327-12.5796738s-23.5854148 5.4520645-25.3630828 6.1421585z" fill="#32796b"/><circle cx="50" cy="67" fill="#aa975d" r="3.9"/><circle cx="50" cy="67" fill="#e6e7e8" r="2.12"/></svg>